{
  "accessors": [
    {
      "bufferView": 1,
      "componentType": 5126,
      "count": 15749,
      "max": [
        29.999900817871094,
        -0.0,
        13.000499725341797
      ],
      "min": [
        -28.982099533081055,
        -63.00019836425781,
        -42.9546012878418
      ],
      "type": "VEC3"
    },
    {
      "bufferView": 1,
      "byteOffset": 188988,
      "componentType": 5126,
      "count": 15749,
      "max": [
        1.0,
        1.0,
        1.0
      ],
      "min": [
        -1.0,
        -1.0,
        -1.0
      ],
      "type": "VEC3"
    },
    {
      "bufferView": 0,
      "componentType": 5125,
      "count": 49395,
      "type": "SCALAR"
    },
    {
      "bufferView": 1,
      "byteOffset": 377976,
      "componentType": 5126,
      "count": 8702,
      "max": [
        29.920000076293945,
        -0.0949999988079071,
        12.95300006866455
      ],
      "min": [
        -28.902999877929688,
        -62.90399932861328,
        -42.90700149536133
      ],
      "type": "VEC3"
    },
    {
      "bufferView": 1,
      "byteOffset": 482400,
      "componentType": 5126,
      "count": 8702,
      "max": [
        1.0,
        1.0,
        1.0
      ],
      "min": [
        -1.0,
        -1.0,
        -1.0
      ],
      "type": "VEC3"
    },
    {
      "bufferView": 0,
      "byteOffset": 197580,
      "componentType": 5125,
      "count": 25935,
      "type": "SCALAR"
    }
  ],
  "asset": {
    "extras": {
      "author": "Cwat325 (https://sketchfab.com/Cwat325)",
      "license": "CC-BY-4.0 (http://creativecommons.org/licenses/by/4.0/)",
      "source": "https://sketchfab.com/3d-models/basketball-58b5a30505e24792917fd940b4785cfe",
      "title": "Basketball"
    },
    "generator": "Sketchfab-12.12.0",
    "version": "2.0"
  },
  "bufferViews": [
    {
      "buffer": 0,
      "byteLength": 301320,
      "name": "floatBufferViews",
      "target": 34963
    },
    {
      "buffer": 0,
      "byteLength": 586824,
      "byteOffset": 301320,
      "byteStride": 12,
      "name": "floatBufferViews",
      "target": 34962
    }
  ],
  "buffers": [
    {
      "byteLength": 888144,
      "uri": "scene.bin"
    }
  ],
  "materials": [
    {
      "doubleSided": true,
      "name": "color_15435567",
      "pbrMetallicRoughness": {
        "baseColorFactor": [
          0.921569,
          0.529412,
          0.184314,
          1.0
        ],
        "metallicFactor": 0.0
      }
    },
    {
      "doubleSided": true,
      "name": "color_2829873",
      "pbrMetallicRoughness": {
        "baseColorFactor": [
          0.168627,
          0.180392,
          0.192157,
          1.0
        ],
        "metallicFactor": 0.0
      }
    }
  ],
  "meshes": [
    {
      "name": "Object_0",
      "primitives": [
        {
          "attributes": {
            "NORMAL": 1,
            "POSITION": 0
          },
          "indices": 2,
          "material": 0,
          "mode": 4
        }
      ]
    },
    {
      "name": "Object_1",
      "primitives": [
        {
          "attributes": {
            "NORMAL": 4,
            "POSITION": 3
          },
          "indices": 5,
          "material": 1,
          "mode": 4
        }
      ]
    }
  ],
  "nodes": [
    {
      "children": [
        1
      ],
      "matrix": [
        1.0,
        0.0,
        0.0,
        0.0,
        0.0,
        2.220446049250313e-16,
        -1.0,
        0.0,
        0.0,
        1.0,
        2.220446049250313e-16,
        0.0,
        0.0,
        0.0,
        0.0,
        1.0
      ],
      "name": "Sketchfab_model"
    },
    {
      "children": [
        2,
        3
      ],
      "name": "tinker.obj.cleaner.materialmerger.gles"
    },
    {
      "mesh": 0,
      "name": "Object_2"
    },
    {
      "mesh": 1,
      "name": "Object_3"
    }
  ],
  "scene": 0,
  "scenes": [
    {
      "name": "Sketchfab_Scene",
      "nodes": [
        0
      ]
    }
  ]
}
